<?xml version="1.0" encoding="utf-8"?>
<!-- Generator: Adobe Illustrator 16.0.0, SVG Export Plug-In . SVG Version: 6.00 Build 0)  -->
<!DOCTYPE svg PUBLIC "-//W3C//DTD SVG 1.1//EN" "http://www.w3.org/Graphics/SVG/1.1/DTD/svg11.dtd">
<svg version="1.1" id="图层_1" xmlns="http://www.w3.org/2000/svg" xmlns:xlink="http://www.w3.org/1999/xlink" x="0px" y="0px"
	 width="1133.86px" height="850.39px" viewBox="0 0 1133.86 850.39" enable-background="new 0 0 1133.86 850.39"
	 xml:space="preserve">
<g>
	<defs>
		<rect id="SVGID_1_" width="1133.86" height="850.39"/>
	</defs>
	<clipPath id="SVGID_2_">
		<use xlink:href="#SVGID_1_"  overflow="visible"/>
	</clipPath>
	<path clip-path="url(#SVGID_2_)" fill="#989380" d="M516.073,287.738c-7.93,0-14.003,10.417-18.214,31.254
		c-0.931,4.505-1.837,8.808-2.722,12.931c-1.592-11.911-6.166-21.895-13.822-29.886c-9.665-10.091-22.304-15.136-37.917-15.136
		c-31.228,0-61.961,13.941-92.194,41.823c-20.696-30.113-51.426-45.168-92.193-45.168c-47.954,0-90.955,15.274-128.996,45.817
		c-38.043,30.548-57.063,65.089-57.063,103.625c0,17.97,5.576,32.685,16.729,44.146c11.152,11.461,25.34,17.193,42.565,17.193
		c25.029,0,50.586-13.073,76.673-39.22c26.082-26.146,39.126-51.735,39.126-76.767c0-9.665-2.821-17.501-8.457-23.513
		c-5.64-6.008-12.983-9.015-22.027-9.015c-7.062,0-13.075,1.985-18.029,5.948c-4.957,3.968-7.435,8.737-7.435,14.313
		c0,8.178,3.778,12.267,11.338,12.267c4.211,0,7.868-1.515,10.967-4.553c3.096-3.036,4.646-6.599,4.646-10.688
		c0-5.577-3.038-8.364-9.107-8.364h-2.603c-0.497,0.249-1.114,0.371-1.858,0.371c-1.365,0-2.045-0.432-2.045-1.301
		c0-2.974,4.584-4.461,13.755-4.461c8.053,0,14.558,2.728,19.516,8.178c4.955,5.455,7.435,12.639,7.435,21.562
		c0,23.545-12.732,48.081-38.197,73.606c-25.464,25.53-50.031,38.29-73.698,38.29c-14.004,0-25.25-4.023-33.736-12.081
		c-8.489-8.054-12.732-18.773-12.732-32.156c0-16.852,5.265-35.316,15.799-55.391c10.53-20.075,24.595-38.412,42.193-55.019
		c34.945-32.961,73.356-49.443,115.241-49.443c40.521,0,69.825,15.243,87.918,45.725c-21.686,20.447-41.574,45.168-59.665,74.163
		c-29.989,47.833-52.231,78.875-66.728,93.123c-14.656,14.413-34.682,25.027-60.05,31.854c-3.277,1.556-6.829,2.45-10.389,3.11
		c-0.604,0.112-1.204,0.136-1.795,0.102c-1.227,0.584-2.406,1.239-3.504,2.012c2.312-0.38,4.631-0.774,6.964-1.203
		c24.164,3.839,43.184,5.762,57.064,5.762c44.981,0,83.053-14.125,114.218-42.378c31.163-28.253,46.747-62.701,46.747-103.347
		c0-22.054-5.329-42.997-15.985-62.824c28.128-28.5,57.186-42.752,87.175-42.752c15.614,0,28.16,4.738,37.639,14.206
		c9.48,9.467,14.219,21.999,14.219,37.595c0,0.138-0.007,0.27-0.007,0.408c-3.244,14.528-6.154,26.255-8.728,35.151h3.438
		c0.61-1.688,1.348-3.575,2.184-5.616c1.021-0.527,2.076-2.986,3.165-7.366c4.981-11.137,12.342-25.975,22.087-44.519
		c5.562-10.542,8.345-18.296,8.345-23.26C523.323,290.776,520.906,287.738,516.073,287.738 M359.754,381.512
		c0,28.267-9.093,57.084-27.273,86.454c-27.982,45.4-64.586,68.096-109.804,68.096c-16.885,0-32.823-1.652-47.818-4.956
		c35.502-10.278,62.457-23.92,80.858-40.929c17.809-16.643,35.033-43.87,51.665-81.682c12.62-28.511,26.894-52.189,42.818-71.035
		C356.569,351.166,359.754,365.85,359.754,381.512"/>
	<path clip-path="url(#SVGID_2_)" fill="#989380" d="M835.925,440.226l-0.22-0.068c-0.125-0.009-0.229-0.047-0.327-0.09
		c-0.204-0.013-0.401-0.036-0.615-0.036c-6.829,0-19.798,12.73-38.913,38.187l-2.494,3.464c-0.499,0.222-1.031,0.802-1.604,1.75
		c-27.049,39.345-46.219,59.016-57.514,59.016c-5.088,0-7.633-2.789-7.633-8.363c0-5.45,6.136-18.648,18.402-39.592
		c12.144-20.567,41.449-67.779,87.918-141.635c-6.691,0.497-10.533,0.743-11.524,0.743c-3.966,0-7.992-0.619-12.081-1.858
		l-66.356,111.151c2.104-4.336,3.16-8.239,3.16-11.71c0-7.435-3.842-11.152-11.525-11.152c-11.523,0-27.385,6.632-47.581,19.89
		c-11.925,7.795-21.013,16.017-27.339,24.656c-0.322,0.34-0.657,0.699-1.018,1.098c-0.942,1.323-1.876,2.57-2.807,3.784
		c-0.403,0.78-0.778,1.577-1.175,2.298c-0.486,0.884-0.939,1.776-1.34,2.689c-0.341,0.885-0.654,1.781-0.921,2.698l-0.063,0.12
		l0.225-0.229c-2.442,5.969-3.668,12.121-3.668,18.461c0,8.55,2.229,15.644,6.691,21.28c4.459,5.64,9.974,8.459,16.543,8.459
		c10.53,0,26.641-15.364,48.326-46.097c-4.461,8.799-6.69,16.543-6.69,23.234s1.797,12.174,5.395,16.449
		c3.595,4.274,8.248,6.413,13.958,6.413c11.164,0,28.47-16.194,51.919-48.586l8.001-10.98c0.129-0.188,0.229-0.337,0.345-0.508
		c0.639-0.384,1.327-1.123,2.078-2.289c18.253-26.702,30.859-40.054,37.811-40.054c0.423,0,0.79,0.069,1.139,0.158
		C835.474,442.547,836.247,441.289,835.925,440.226 M672.073,538.72c-6.271,0-9.406-3.805-9.406-11.415
		c0-12.492,8.406-28.932,25.225-49.318c16.816-20.384,30.356-30.58,40.618-30.58c5.584,0,8.379,3.012,8.379,9.029
		c0,6.248-5.93,17.888-17.785,34.924C696.871,522.936,681.192,538.72,672.073,538.72"/>
	<path clip-path="url(#SVGID_2_)" fill="#989380" d="M600.886,442.839c0.143-0.02,0.295-0.01,0.459,0.041
		c0.165,0.019,0.334,0.033,0.488,0.066c0.59-0.148,1.203-0.429,1.595-0.89c0.076-0.139,0.157-0.273,0.239-0.409l0.087-0.155
		c0.071-0.212,0.071-0.396,0.037-0.564l-0.009-0.058c-0.09-0.331-0.358-0.579-0.688-0.771c-0.308-0.028-0.61-0.066-0.941-0.066
		c-6.829,0-19.798,12.729-38.912,38.185l-2.495,3.465c-0.498,0.223-1.032,0.802-1.603,1.75
		c-11.293,16.633-22.398,30.626-33.318,41.983c-10.92,11.354-18.864,17.033-23.827,17.033c-4.838,0-7.257-2.911-7.257-8.735
		c0-6.071,5.697-18.651,17.1-37.733l32.9-54.462c-5.33,0.87-9.666,1.303-13.012,1.303c-2.852,0-6.133-0.433-9.851-1.303
		l-9.479,18.03c0.99-3.467,1.487-6.255,1.487-8.364c0-7.435-3.843-11.151-11.524-11.151c-9.047,0-20.944,4.09-35.688,12.267
		c-33.583,18.342-50.372,39.405-50.372,63.198c0,8.55,2.231,15.644,6.691,21.281c4.462,5.639,9.973,8.459,16.543,8.459
		c6.196,0,12.575-3.038,19.145-9.109c6.567-6.068,16.045-17.781,28.438-35.13c-3.967,7.808-5.948,15.056-5.948,21.747
		c0,6.444,1.798,11.803,5.397,16.079c3.596,4.273,8.247,6.413,13.958,6.413c8.434,0,19.972-8.813,34.612-26.437
		c15.646-18.545,24.517-30.033,26.648-34.505c0.349-0.388,0.706-0.838,1.083-1.423c18.253-26.702,30.858-40.053,37.81-40.053
		L600.886,442.839z M481.507,498.723c-19.508,27.111-33.219,40.666-41.136,40.666c-6.656,0-9.983-3.845-9.983-11.542
		c0-13.142,8.576-30.365,25.731-51.676c17.153-21.309,31.008-31.963,41.567-31.963c5.164,0,7.745,2.902,7.745,8.701
		C505.431,461.197,497.455,476.468,481.507,498.723"/>
	<path clip-path="url(#SVGID_2_)" fill="#989380" d="M624.295,478.135c5.451-3.346,9.541-5.883,12.267-7.621
		c17.224-11.026,25.837-19.516,25.837-25.463c0-3.346-1.922-5.019-5.763-5.019c-5.575,0-11.866,3.717-18.865,11.151
		c-6.218,6.604-11.528,14.632-15.937,24.068l-0.124,0.276c-0.513,1.102-1.02,2.211-1.506,3.352
		c-5.824,4.711-11.96,10.779-18.401,18.216c10.159-15.736,15.244-28.376,15.244-37.919c0-8.339-2.137-13.936-6.375-16.827
		c-0.176-0.045-0.349-0.12-0.501-0.274l-0.049-0.04l-0.065,0.013c-1.151,0.003-2.232,0.078-3.34,0.392
		c-0.034,0.213-0.134,0.424-0.354,0.599c-0.886,0.705-1.417,1.617-1.724,2.624c0.205,0.669,0.323,1.444,0.323,2.362
		c0,5.947-7.619,21.314-22.86,46.097l-30.485,49.443c7.064-0.498,10.841-0.745,11.339-0.745c1.114,0,4.954,0.247,11.524,0.745
		c12.018-20.57,20.475-34.202,25.371-40.894c4.895-6.69,11.246-13.443,19.053-20.26c-1.486,5.329-2.231,9.729-2.231,13.197
		c0,10.903,4.716,16.357,14.153,16.357c6.663,0,13.7-3.504,21.084-10.226c0.047-0.173,0.125-0.342,0.279-0.491
		c0.721-0.695,1.467-2.085,0.894-3.043l-0.355-0.059h-0.177c-7.534,7.682-14.656,11.586-21.355,11.586
		c-7.823,0-11.733-5.204-11.733-15.612c0-3.717,0.863-8.425,2.603-14.128L624.295,478.135z"/>
	<path clip-path="url(#SVGID_2_)" fill="#989380" d="M900.12,481.574c-0.623,0-2.177,1.368-4.654,4.102
		c-11.428,16.042-21.979,24.059-31.66,24.059c-7.823,0-11.734-5.204-11.734-15.612c0-3.717,0.865-8.426,2.604-14.128l2.229-1.858
		c5.451-3.345,9.542-5.882,12.268-7.62c17.224-11.027,25.838-19.516,25.838-25.464c0-3.347-1.922-5.019-5.765-5.019
		c-5.574,0-11.865,3.717-18.864,11.151c-7.002,7.435-12.858,16.668-17.566,27.696c-5.825,4.711-11.959,10.779-18.401,18.216
		c10.158-15.737,15.243-28.376,15.243-37.918c0-10.357-3.306-16.467-9.844-18.419c-0.168,0.056-0.338,0.104-0.505,0.159
		l-0.333,0.048c-0.233,0.214-0.449,0.472-0.648,0.763c-0.042,0.143-0.081,0.286-0.146,0.428c-0.079,0.17-0.191,0.293-0.315,0.391
		c-0.366,0.737-0.653,1.582-0.841,2.449c0.36,0.795,0.549,1.797,0.549,3.027c0,5.948-7.619,21.315-22.859,46.098l-30.485,49.443
		c7.063-0.499,10.843-0.745,11.339-0.745c1.116,0,4.955,0.246,11.524,0.745c12.018-20.57,20.475-34.202,25.371-40.894
		c4.894-6.691,11.245-13.443,19.054-20.26c-1.488,5.328-2.233,9.729-2.233,13.197c0,10.904,4.717,16.357,14.155,16.357
		c8.316,0,17.192-5.221,26.627-15.662c7.447-8.081,11.172-12.617,11.172-13.614C901.236,481.948,900.862,481.574,900.12,481.574"/>
	<path clip-path="url(#SVGID_2_)" fill="#989380" d="M1041.221,372.188c-12.377,16.142-33.041,31.105-61.993,44.886
		c-1.485,0.746-2.228,1.304-2.228,1.675c0.246,0.251,0.62,0.372,1.116,0.372c2.104,0,10.344-3.105,24.721-9.317
		c18.709-7.827,34.075-16.462,46.095-25.906L1041.221,372.188z M963.037,471.573c-12.139,8.002-26.946,14.198-44.424,18.58
		c10.073-13.867,20.361-25.159,30.859-33.871c10.498-8.713,18.964-13.069,25.398-13.069c4.245,0,6.372,1.897,6.372,5.69
		C981.243,456.015,975.172,463.571,963.037,471.573 M996.053,481.759c-0.993,0-2.234,0.991-3.722,2.973
		c-28.407,38.23-52.407,57.346-72.004,57.346c-11.538,0-17.304-5.326-17.304-15.986c0-8.55,4.21-19.205,12.638-31.97
		c27.261-5.451,46.715-11.307,58.364-17.565c11.646-6.256,17.473-13.848,17.473-22.77c0-3.839-1.58-7.092-4.74-9.759
		c-3.159-2.663-6.969-3.995-11.431-3.995c-10.287,0-23.606,4.461-39.963,13.383c-31.105,16.978-46.654,36.615-46.654,58.922
		c0,9.416,2.945,17.256,8.836,23.513c5.889,6.257,13.177,9.388,21.858,9.388c18.356,0,40.371-15.838,66.045-47.517l7.998-10.018
		c2.229-2.848,3.348-4.457,3.348-4.828C996.795,482.257,996.546,481.886,996.053,481.759"/>
	<path clip-path="url(#SVGID_2_)" fill="#989380" d="M1056.563,471.315c-12.127,7.875-26.917,13.971-44.377,18.282
		c10.062-13.645,20.339-24.756,30.826-33.328c10.487-8.573,18.943-12.859,25.371-12.859c4.241,0,6.365,1.867,6.365,5.599
		C1074.748,456.006,1068.685,463.442,1056.563,471.315 M1089.711,481.759c-0.994,0-2.234,0.991-3.722,2.973
		c-28.407,38.23-52.407,57.346-72.004,57.346c-11.537,0-17.304-5.326-17.304-15.986c0-8.55,4.21-19.205,12.638-31.97
		c27.261-5.451,46.715-11.307,58.364-17.565c11.646-6.256,17.473-13.848,17.473-22.77c0-3.839-1.58-7.092-4.74-9.759
		c-3.16-2.663-6.97-3.995-11.431-3.995c-10.287,0-23.606,4.461-39.963,13.383c-31.105,16.978-46.654,36.615-46.654,58.922
		c0,9.416,2.945,17.256,8.836,23.513c5.888,6.257,13.176,9.388,21.859,9.388c18.355,0,40.37-15.838,66.044-47.517l7.998-10.018
		c2.229-2.848,3.348-4.457,3.348-4.828C1090.453,482.257,1090.204,481.886,1089.711,481.759"/>
	<path clip-path="url(#SVGID_2_)" fill="#989380" d="M654.598,603.613c2.736,0,5.473-0.569,7.696-1.996
		c3.476-2.391,4.332-6.038,4.332-8.091c0-4.048-1.54-7.067-7.468-11.628l-1.313-1.029c-4.729-3.589-6.098-5.242-6.098-7.921
		c0-3.42,2.567-5.472,5.987-5.472c4.786,0,6.097,2.166,6.383,2.678c0.512,0.971,0.626,2.168,0.684,2.681
		c0.057,0.399,0.112,0.628,0.398,0.628s0.397-0.345,0.397-1.198c0-3.306,0.229-5.302,0.229-5.53c0-0.228-0.112-0.339-0.512-0.339
		c-0.4,0-0.856-0.059-1.938-0.287c-1.254-0.286-2.622-0.456-4.618-0.456c-6.384,0-10.544,3.534-10.544,8.778
		c0,3.364,1.14,6.384,6.612,10.771l2.279,1.77c4.16,3.364,5.645,5.358,5.645,8.608c0,2.847-2.28,6.097-7.012,6.097
		c-3.307,0-6.667-1.426-7.41-5.13c-0.169-0.685-0.169-1.367-0.169-1.709c0-0.398-0.117-0.571-0.401-0.571
		c-0.283,0-0.399,0.284-0.456,0.798c-0.055,0.798-0.228,2.736-0.228,5.358c0,1.368,0,1.596,0.74,1.938
		C649.983,603.331,652.204,603.613,654.598,603.613 M615.089,588.908c0,4.273,0,8.321-0.284,10.373
		c-0.172,1.368-0.342,2.509-1.312,2.736c-0.456,0.114-1.082,0.173-1.368,0.173c-0.512,0-0.74,0.169-0.74,0.397
		c0,0.287,0.401,0.397,0.912,0.397c1.596,0,4.961-0.17,5.13-0.17c0.287,0,3.59,0.17,6.498,0.17c0.57,0,0.798-0.17,0.798-0.397
		c0-0.229-0.113-0.342-0.626-0.397c-0.228,0-1.426-0.059-2.168-0.228c-1.479-0.346-1.708-0.972-1.936-2.625
		c-0.286-2.053-0.229-6.039-0.229-10.43v-8.55c0-7.523-0.058-8.836,0.057-10.374c0.113-1.653,0.284-2.508,1.938-2.735
		c0.398-0.059,0.685-0.059,1.026-0.114c0.456-0.055,0.628-0.172,0.628-0.4c0-0.284-0.286-0.397-0.856-0.397
		c-1.596,0-4.901,0.17-5.13,0.17c-0.169,0-3.42-0.17-5.185-0.17c-0.629,0-0.857,0.113-0.857,0.397c0,0.229,0.229,0.346,0.629,0.4
		c0.339,0.056,0.739,0.056,1.31,0.172c1.198,0.229,1.538,1.082,1.654,2.62c0.111,1.54,0.111,2.908,0.111,10.432V588.908z
		 M568.285,568.902c0-0.286,0.171-0.456,0.342-0.514c0.684-0.169,1.881-0.286,3.306-0.286c5.073,0,8.379,3.42,8.379,9.634
		c0,3.648-1.14,6.156-2.85,7.237c-1.196,0.801-2.622,0.857-3.819,0.857c-2.052,0-4.332-0.343-5.072-0.74
		c-0.229-0.117-0.285-0.4-0.285-0.685V568.902z M563.896,588.908c0,4.273,0.057,8.95-0.228,11.002
		c-0.171,1.368-0.513,1.993-1.482,2.163c-0.456,0.117-0.855,0.117-1.254,0.117c-0.342,0-0.684,0.169-0.684,0.339
		c0,0.346,0.228,0.456,0.798,0.456c1.539,0,4.047-0.17,4.959-0.17c0.229,0,3.42,0.17,6.384,0.17c0.57,0,0.798-0.17,0.798-0.456
		c0-0.17-0.228-0.339-0.74-0.339c-0.456,0-1.083-0.059-1.653-0.117c-1.881-0.228-2.052-1.367-2.223-2.735
		c-0.285-2.053-0.285-6.211-0.285-10.771v-0.798l0.285-0.287l5.871,0.06c0.342,0,0.455,0.113,0.684,0.342
		c0.969,1.195,3.249,4.275,5.473,7.012c2.964,3.817,4.671,6.384,7.068,7.407c1.251,0.514,2.508,0.684,5.186,0.684h3.989
		c0.798,0,1.026-0.11,1.026-0.397c0-0.229-0.169-0.397-0.625-0.397c-0.173,0-1.368-0.059-1.77-0.117
		c-1.596-0.228-3.305-0.684-6.041-3.476c-2.905-3.019-6.326-7.24-10.487-12.367c4.501-3.647,6.042-7.64,6.042-10.773
		c0-3.876-2.336-6.156-3.42-6.954c-2.682-1.879-6.156-2.166-9.349-2.166c-1.596,0-5.472,0.17-5.984,0.17
		c-0.114,0-3.591-0.17-6.042-0.17c-0.513,0-0.684,0.17-0.684,0.397c0,0.229,0.228,0.346,0.627,0.346c0.456,0,1.026,0.055,1.368,0.11
		c1.767,0.345,2.166,1.198,2.28,2.736c0.114,1.54,0.114,2.908,0.114,10.432V588.908z M517.547,587.084l-0.114-0.343l4.275-12.596
		c0.285-0.8,0.342-0.8,0.627,0l4.503,12.596l-0.171,0.343H517.547z M527.351,589.078l0.456,0.286l4.503,11.458
		c0.342,0.854,0,1.141-0.228,1.251l-0.399,0.4c0,0.284,0.342,0.342,1.425,0.401c3.819,0.11,8.094,0.11,8.664,0.11
		c0.626,0,0.854-0.11,0.854-0.397c0-0.286-0.285-0.397-0.684-0.397s-1.196,0-1.938-0.287c-0.797-0.286-2.45-1.025-4.331-5.529
		c-3.021-7.123-10.773-27.016-11.571-28.897c-0.627-1.596-0.855-1.824-1.14-1.824c-0.399,0-0.57,0.287-1.197,1.938l-11.4,30.04
		c-0.969,2.391-1.938,4.272-4.389,4.501c-0.342,0.059-0.855,0.059-1.14,0.059c-0.456,0-0.684,0.169-0.684,0.397
		c0,0.287,0.285,0.397,0.912,0.397c2.394,0,4.902-0.17,5.472-0.17c0.627,0,3.249,0.17,4.503,0.17c0.399,0,0.855-0.11,0.855-0.397
		c0-0.229-0.171-0.397-0.684-0.397h-0.399c-1.254,0-1.881-0.456-1.881-1.484c0-0.912,0.399-2.45,0.969-4.047l2.508-7.126
		c0.114-0.282,0.285-0.455,0.57-0.455H527.351z M469.488,586.458c0,5.472,0,9.973-0.285,12.366
		c-0.228,1.652-0.513,2.909-1.653,3.138c-0.513,0.11-1.197,0.228-1.71,0.228c-0.342,0-0.456,0.169-0.456,0.339
		c0,0.346,0.285,0.456,0.912,0.456c1.71,0,5.301-0.17,5.472-0.17c0.285,0,3.876,0.17,7.011,0.17c0.627,0,0.912-0.17,0.912-0.456
		c0-0.17-0.114-0.339-0.456-0.339c-0.513,0-1.767-0.117-2.565-0.228c-1.71-0.229-2.052-1.485-2.223-3.138
		c-0.285-2.394-0.285-6.895-0.285-12.366V563.03c0-0.569,0.114-0.967,0.456-1.084c0.513-0.228,1.482-0.339,2.451-0.339
		c1.311,0,4.788-0.228,7.809,2.848c3.021,3.08,3.192,6.897,3.192,8.323c0,5.984-4.332,9.746-9.861,9.746
		c-1.197,0-1.539,0.059-1.539,0.515c0,0.283,0.342,0.397,0.627,0.397c0.285,0.058,0.912,0.058,1.197,0.058
		c8.094,0,14.021-5.472,14.021-12.884c0-3.704-1.596-6.267-2.85-7.466c-0.911-0.853-3.476-3.25-10.601-3.25
		c-2.622,0-5.928,0.172-7.182,0.172c-0.456,0-3.876-0.172-6.441-0.172c-0.627,0-0.912,0.117-0.912,0.456l0.456,0.345
		c0.513,0,1.482,0.056,1.938,0.169c1.881,0.398,2.337,1.311,2.451,3.251c0.114,1.824,0.114,3.42,0.114,12.312V586.458z"/>
	
		<rect x="492.409" y="319.981" transform="matrix(0.9769 0.2138 -0.2138 0.9769 84.2138 -97.4553)" clip-path="url(#SVGID_2_)" fill="#FFFFFF" width="0.669" height="41.397"/>
	<path clip-path="url(#SVGID_2_)" fill="#989380" d="M494.929,332.609c-1.739-11.455-6.228-21.118-13.614-28.893
		c-9.665-10.174-22.304-15.262-37.918-15.262c-31.227,0-61.96,14.058-92.193,42.174c-20.696-30.366-51.426-45.548-92.193-45.548
		c-47.954,0-90.955,15.403-128.996,46.203c-38.043,30.803-57.063,65.634-57.063,104.494c0,18.12,5.576,32.959,16.729,44.518
		c11.152,11.557,25.339,17.337,42.565,17.337c25.029,0,50.586-13.184,76.672-39.549c26.083-26.364,39.127-52.169,39.127-77.412
		c0-9.745-2.821-17.648-8.457-23.709c-5.641-6.06-12.983-9.091-22.027-9.091c-7.062,0-13.075,2.001-18.029,5.997
		c-4.957,4.001-7.435,8.81-7.435,14.434c0,8.246,3.778,12.369,11.338,12.369c4.211,0,7.868-1.527,10.967-4.591
		c3.095-3.061,4.646-6.654,4.646-10.778c0-5.623-3.038-8.434-9.108-8.434h-2.602c-0.497,0.251-1.114,0.374-1.858,0.374
		c-1.365,0-2.045-0.436-2.045-1.311c0-3,4.583-4.499,13.755-4.499c8.053,0,14.558,2.751,19.516,8.247
		c4.955,5.5,7.435,12.745,7.435,21.742c0,23.744-12.732,48.484-38.197,74.225c-25.464,25.744-50.032,38.611-73.698,38.611
		c-14.004,0-25.25-4.059-33.737-12.184c-8.488-8.121-12.731-18.931-12.731-32.426c0-16.993,5.265-35.613,15.799-55.856
		c10.53-20.242,24.595-38.734,42.193-55.48c34.945-33.238,73.356-49.858,115.241-49.858c40.521,0,69.825,15.371,87.918,46.109
		c-21.686,20.618-41.574,45.547-59.665,74.786c-29.99,48.235-52.231,79.537-66.728,93.904C205.666,518,185.28,528.81,159.383,535.68
		c-38.415-8.496-64.065-12.746-76.951-12.746c-10.659,0-19.981,1.251-27.974,3.748c-7.992,2.502-11.989,5.373-11.989,8.621
		c0,6.622,16.356,9.935,49.071,9.935c19.206,0,39.28-1.938,60.222-5.81c24.163,3.871,43.184,5.81,57.064,5.81
		c44.981,0,83.053-14.244,114.218-42.733c31.162-28.49,46.747-63.228,46.747-104.214c0-22.239-5.329-43.358-15.985-63.352
		c28.128-28.738,57.186-43.11,87.175-43.11c15.614,0,28.16,4.777,37.639,14.325c9.15,9.214,13.839,21.336,14.157,36.308
		C493.498,339.178,494.207,335.892,494.929,332.609 M95.536,538.447c-28.153,0-42.228-1.499-42.228-4.498
		c0-1.969,6.446-2.955,19.341-2.955c14.611,0,36.748,1.67,66.404,5.012C126.16,537.631,111.653,538.447,95.536,538.447
		 M359.754,383.859c0,28.504-9.093,57.563-27.273,87.178c-27.983,45.783-64.586,68.668-109.804,68.668
		c-16.885,0-32.823-1.664-47.819-4.996c35.502-10.365,62.458-24.121,80.859-41.273c17.809-16.781,35.033-44.238,51.665-82.367
		c12.62-28.751,26.894-52.628,42.818-71.632C356.569,353.258,359.754,368.066,359.754,383.859"/>
	<path clip-path="url(#SVGID_2_)" fill="#989380" d="M604.607,440.034c-0.094-0.331-0.372-0.579-0.713-0.771
		c-0.32-0.028-0.634-0.065-0.978-0.065c-7.088,0-20.548,12.729-40.384,38.185l-2.589,3.464c-0.518,0.223-1.072,0.803-1.665,1.751
		c-11.719,16.633-23.245,30.625-34.578,41.982c-11.333,11.355-19.578,17.034-24.728,17.034c-2.898,0-4.931-1.002-6.157-2.94
		c-0.522,0.871-1.26,1.59-2.124,2.173c0.211,0.126,0.429,0.237,0.636,0.373c0.34,0.223,0.676,0.455,1.016,0.683
		c1.82,0.171,3.401,1.119,4.508,2.462c0.201,0.007,0.388,0.038,0.592,0.038c8.754,0,20.728-8.813,35.923-26.437
		c16.236-18.545,25.444-30.033,27.656-34.504c0.362-0.389,0.732-0.838,1.123-1.424c18.944-26.702,32.027-40.053,39.241-40.053
		l0.215,0.019c0.147-0.02,0.307-0.01,0.477,0.041c0.172,0.02,0.348,0.033,0.507,0.066c0.611-0.148,1.248-0.429,1.654-0.89
		c0.079-0.138,0.163-0.273,0.248-0.408l0.092-0.156c0.072-0.212,0.073-0.396,0.038-0.563L604.607,440.034z"/>
	<path clip-path="url(#SVGID_2_)" fill="#989380" d="M605.043,440.47c0,1.482-0.972,2.686-2.169,2.686
		c-1.196,0-2.167-1.203-2.167-2.686c0-1.483,0.971-2.687,2.167-2.687C604.071,437.784,605.043,438.987,605.043,440.47"/>
	<path clip-path="url(#SVGID_2_)" fill="#989380" d="M652.378,496.625l-0.356-0.06h-0.178c-7.563,7.682-14.716,11.586-21.441,11.586
		c-7.855,0-11.781-5.204-11.781-15.611c0-3.718,0.868-8.426,2.614-14.129l1.521-1.263c-0.542-0.267-0.99-0.624-1.381-1.027
		l-0.009,0.025l-0.075,0.068l-0.222,0.206l-0.029,0.029l-0.003-0.008l-0.009,0.006l-0.187,0.126l-0.322,0.17
		c-0.327,0.217-0.673,0.395-1.031,0.544c-0.177,0.105-0.344,0.222-0.514,0.336c-5.731,4.664-11.759,10.618-18.084,17.891
		c0.097-0.148,0.181-0.289,0.271-0.432c-0.148,0.193-0.29,0.393-0.453,0.577l-0.131,0.187l-0.017-0.014l-0.277,0.324l-0.297,0.187
		c-0.617,0.789-1.212,1.604-1.727,2.493c-0.374,0.646-0.757,1.297-1.146,1.942c0.049,0.151,0.066,0.322,0.127,0.465
		c0.223,0.529,0.375,1.046,0.471,1.55c0.426-0.605,0.838-1.184,1.221-1.704c4.914-6.692,11.291-13.444,19.13-20.261
		c-1.492,5.329-2.24,9.73-2.24,13.197c0,10.904,4.734,16.358,14.211,16.358c6.688,0,13.756-3.504,21.168-10.228
		c0.047-0.172,0.126-0.341,0.28-0.489C652.205,498.973,652.954,497.583,652.378,496.625"/>
	<path clip-path="url(#SVGID_2_)" fill="#989380" d="M836.869,437.999l-0.235-0.068c-0.133-0.01-0.244-0.048-0.349-0.092
		c-0.217-0.013-0.426-0.036-0.654-0.036c-7.276,0-21.094,12.906-41.46,38.715l-2.657,3.512c-0.532,0.226-1.1,0.813-1.709,1.775
		c-27.864,38.568-47.855,58.431-60.027,59.71c-0.299,0.942-0.591,1.885-0.897,2.824c11.921-1.302,29.84-17.651,53.79-49.133
		l8.523-11.134c0.139-0.189,0.244-0.341,0.368-0.514c0.68-0.389,1.414-1.139,2.214-2.321c19.447-27.071,32.879-40.607,40.284-40.607
		c0.451,0,0.843,0.069,1.214,0.159C836.388,440.352,837.212,439.076,836.869,437.999"/>
	<path clip-path="url(#SVGID_2_)" fill="#989380" d="M792.362,482.418c0.538,0.406,0.845,0.905,0.686,1.116l-31.737,42.06
		c-0.159,0.21-0.725,0.053-1.262-0.353c-0.537-0.406-0.845-0.906-0.686-1.116l31.738-42.06
		C791.261,481.855,791.824,482.012,792.362,482.418"/>
	<path clip-path="url(#SVGID_2_)" fill="#989380" d="M770.15,512.992c0.63,0.592,1.063,1.157,0.963,1.263l-19.604,20.864
		c-0.098,0.104-0.689-0.291-1.319-0.883c-0.63-0.593-1.061-1.158-0.963-1.262l19.604-20.865
		C768.93,512.004,769.521,512.4,770.15,512.992"/>
	<path clip-path="url(#SVGID_2_)" fill="#989380" d="M752.945,530.343c0.556,0.769,0.939,1.44,0.855,1.501l-16.687,12.066
		c-0.083,0.061-0.601-0.514-1.157-1.282c-0.556-0.769-0.938-1.44-0.854-1.501l16.685-12.066
		C751.871,529,752.39,529.574,752.945,530.343"/>
	<path clip-path="url(#SVGID_2_)" fill="#989380" d="M827.736,441.753c0.322,0.298,0.47,0.665,0.327,0.82l-28.485,30.904
		c-0.143,0.154-0.521,0.039-0.844-0.26c-0.323-0.298-0.471-0.664-0.327-0.819l28.484-30.904
		C827.035,441.339,827.413,441.456,827.736,441.753"/>
	<path clip-path="url(#SVGID_2_)" fill="#989380" d="M887.123,495.897c-0.122-0.019-0.245-0.034-0.363-0.06h-0.181
		c-7.694,7.683-14.968,11.586-21.81,11.586c-7.99,0-11.984-5.204-11.984-15.611c0-3.718,0.883-8.426,2.659-14.128l1.547-1.264
		c-0.552-0.267-1.007-0.624-1.405-1.026l-0.008,0.024l-0.078,0.068l-0.225,0.206l-0.03,0.029l-0.002-0.008l-0.009,0.006l-0.19,0.126
		l-0.327,0.171c-0.334,0.216-0.685,0.394-1.05,0.544c-0.179,0.104-0.349,0.221-0.521,0.335c-5.83,4.665-11.961,10.619-18.396,17.891
		c0.098-0.148,0.184-0.289,0.274-0.432c-0.151,0.193-0.295,0.393-0.46,0.578l-0.135,0.186l-0.016-0.014l-0.283,0.324l-0.302,0.187
		c-0.628,0.789-1.233,1.604-1.755,2.493c-0.381,0.646-0.77,1.297-1.167,1.942c0.05,0.151,0.067,0.322,0.129,0.466
		c0.228,0.528,0.381,1.045,0.479,1.549c0.434-0.605,0.853-1.184,1.241-1.704c4.998-6.692,11.486-13.444,19.459-20.26
		c-1.519,5.329-2.278,9.729-2.278,13.196c0,10.904,4.815,16.358,14.456,16.358c6.804,0,13.991-3.504,21.531-10.228
		c0.049-0.172,0.127-0.341,0.286-0.489C886.947,498.245,887.709,496.855,887.123,495.897"/>
	<path clip-path="url(#SVGID_2_)" fill="#989380" d="M837.14,438.421c0.809,0.913,0.508,2.502-0.674,3.549
		c-1.182,1.048-2.795,1.157-3.604,0.245c-0.809-0.913-0.508-2.502,0.674-3.55C834.716,437.619,836.33,437.508,837.14,438.421"/>
	<path clip-path="url(#SVGID_2_)" fill="#989380" d="M899.529,481.659c0.264,0.229-4.366,5.973-10.341,12.826
		c-5.976,6.853-11.033,12.222-11.297,11.991c-0.265-0.229,4.365-5.972,10.341-12.825
		C894.207,486.797,899.266,481.428,899.529,481.659"/>
	<path clip-path="url(#SVGID_2_)" fill="#989380" d="M866.545,509.381c0,0.853-1.897,1.545-4.237,1.545
		c-2.342,0-4.239-0.692-4.239-1.545s1.897-1.545,4.239-1.545C864.647,507.836,866.545,508.529,866.545,509.381"/>
	<path clip-path="url(#SVGID_2_)" fill="#989380" d="M994.749,480.892c-1.04,0-2.339,0.991-3.895,2.974
		c-29.729,38.254-54.844,57.379-75.354,57.379c-0.835,0-1.635-0.031-2.413-0.083c1.73,1.05,3.508,2.032,5.273,3.033
		c18.42-1.939,40.182-17.71,65.29-47.331l8.371-10.025c2.333-2.849,3.504-4.459,3.504-4.83
		C995.526,481.391,995.266,481.019,994.749,480.892"/>
	<path clip-path="url(#SVGID_2_)" fill="#989380" d="M969.379,513.285c0.386,0.478-6.313,6.537-14.96,13.535
		c-8.649,6.998-15.973,12.284-16.359,11.807c-0.386-0.478,6.313-6.537,14.96-13.535
		C961.669,518.093,968.993,512.808,969.379,513.285"/>
	<path clip-path="url(#SVGID_2_)" fill="#989380" d="M996.811,482.732c0,1.018-0.814,1.842-1.817,1.842s-1.816-0.824-1.816-1.842
		c0-1.017,0.813-1.841,1.816-1.841S996.811,481.715,996.811,482.732"/>
	<path clip-path="url(#SVGID_2_)" fill="#989380" d="M1088.549,480.892c-1.04,0-2.339,0.991-3.896,2.974
		c-29.728,38.254-54.845,57.379-75.353,57.379c-0.835,0-1.635-0.031-2.413-0.083c1.731,1.05,3.507,2.032,5.272,3.033
		c18.421-1.939,40.183-17.71,65.291-47.331l8.37-10.025c2.333-2.849,3.505-4.459,3.505-4.83
		C1089.326,481.391,1089.064,481.019,1088.549,480.892"/>
	<path clip-path="url(#SVGID_2_)" fill="#989380" d="M1063.179,513.285c0.386,0.478-6.313,6.537-14.96,13.535
		c-8.649,6.998-15.974,12.284-16.359,11.807s6.312-6.537,14.96-13.535C1055.469,518.093,1062.792,512.808,1063.179,513.285"/>
	<path clip-path="url(#SVGID_2_)" fill="#989380" d="M1090.453,482.732c0,1.018-0.813,1.842-1.816,1.842
		c-1.003,0-1.817-0.824-1.817-1.842c0-1.017,0.814-1.841,1.817-1.841C1089.641,480.891,1090.453,481.715,1090.453,482.732"/>
	<path clip-path="url(#SVGID_2_)" fill="#989380" d="M604.607,438.64c-0.094-0.331-0.372-0.579-0.713-0.771
		c-0.32-0.028-0.634-0.065-0.978-0.065c-7.088,0-20.548,12.729-40.384,38.185l-2.589,3.464c-0.518,0.223-1.072,0.803-1.665,1.751
		c-11.719,16.632-23.245,30.625-34.578,41.982c-11.333,11.354-19.578,17.034-24.728,17.034c-2.898,0-4.931-1.002-6.157-2.94
		c-0.522,0.871-1.26,1.59-2.124,2.173c0.211,0.126,0.429,0.237,0.636,0.373c0.34,0.223,0.676,0.455,1.016,0.683
		c1.82,0.171,3.401,1.118,4.508,2.462c0.201,0.007,0.388,0.038,0.592,0.038c8.754,0,20.728-8.813,35.923-26.437
		c16.236-18.545,25.444-30.033,27.656-34.504c0.362-0.389,0.732-0.838,1.123-1.424c18.944-26.702,32.027-40.053,39.241-40.053
		l0.215,0.019c0.147-0.02,0.307-0.01,0.477,0.041c0.172,0.02,0.348,0.033,0.507,0.066c0.611-0.148,1.248-0.429,1.654-0.89
		c0.079-0.138,0.163-0.273,0.248-0.409l0.092-0.155c0.072-0.212,0.073-0.396,0.038-0.563L604.607,438.64z"/>
	<path clip-path="url(#SVGID_2_)" fill="#989380" d="M480.458,304.955c-10.177-11.361-23.488-17.041-39.93-17.041
		c-31.421,0-62.365,14.368-92.831,43.028c0.707,1.671,1.445,3.329,2.204,4.979c28.462-29.464,57.82-44.24,88.082-44.24
		c16.443,0,29.655,5.334,39.637,15.995c9.636,10.288,14.573,23.823,14.909,40.54c0.759-3.666,1.506-7.335,2.266-11
		C492.963,324.425,488.237,313.636,480.458,304.955"/>
	<path clip-path="url(#SVGID_2_)" fill="#989380" d="M88.441,477.686c10.941,11.558,24.86,17.337,41.759,17.337
		c24.556,0,49.629-13.183,75.222-39.548c25.589-26.364,38.386-52.17,38.386-77.411c0-9.746-2.767-17.648-8.297-23.71
		c-5.533-6.06-12.737-9.091-21.61-9.091c-6.929,0-12.828,2.001-17.688,5.998c-4.863,4-7.294,8.81-7.294,14.433
		c0,8.246,3.706,12.37,11.123,12.37c4.132,0,7.72-1.528,10.76-4.592c3.037-3.061,4.558-6.654,4.558-10.778
		c0-5.623-2.98-8.434-8.935-8.434h-2.553c-0.488,0.251-1.094,0.374-1.823,0.374c-1.34,0-2.007-0.435-2.007-1.311
		c0-2.999,4.497-4.499,13.495-4.499c7.9,0,14.283,2.751,19.147,8.247c4.861,5.5,7.294,12.745,7.294,21.743
		c0,23.743-12.491,48.483-37.474,74.224c-24.982,25.744-49.085,38.61-72.304,38.61c-13.739,0-24.772-4.058-33.098-12.183
		c-6.128-5.976-9.982-13.42-11.6-22.307c-3.625-0.934-7.207-2.1-10.723-3.45C77.422,462.847,81.965,470.846,88.441,477.686"/>
	<path clip-path="url(#SVGID_2_)" fill="#989380" d="M243.921,393.298c-1.863,10.841-4.365,19.459-5.587,19.249
		c-1.222-0.21-0.702-9.169,1.162-20.01c1.863-10.841,4.364-19.459,5.586-19.249C246.304,373.499,245.784,382.458,243.921,393.298"/>
	<path clip-path="url(#SVGID_2_)" fill="#989380" d="M216.003,366.672c0.279,7.424-5.413,13.665-12.714,13.939
		c-7.301,0.274-13.445-5.522-13.724-12.946c-0.279-7.424,5.414-13.665,12.714-13.939
		C209.581,353.452,215.725,359.248,216.003,366.672"/>
	<path clip-path="url(#SVGID_2_)" fill="#989380" d="M218.986,364.324c0.259,6.903-4.87,12.699-11.456,12.947
		c-6.586,0.247-12.135-5.148-12.394-12.051c-0.259-6.903,4.87-12.7,11.456-12.947S218.728,357.421,218.986,364.324"/>
	<path clip-path="url(#SVGID_2_)" fill="#989380" d="M601.539,442.296c2.094-0.282,4.189,1.98,4.887,4.243"/>
	<path clip-path="url(#SVGID_2_)" fill="#989380" d="M602.747,439.914c2.813-2.12,4.923,0.849,6.681,3.815"/>
	<path clip-path="url(#SVGID_2_)" fill="#989380" d="M603.172,440.641c2.593-1.772,4.378,1.59,5.529,3.513
		c0.557,0.931,2.013,0.084,1.454-0.85c-1.656-2.769-4.288-6.54-7.833-4.117C601.431,439.795,602.272,441.256,603.172,440.641"/>
	<line clip-path="url(#SVGID_2_)" fill="#989380" x1="605.608" y1="442.644" x2="605.42" y2="442.644"/>
	<path clip-path="url(#SVGID_2_)" fill="#989380" d="M605.608,441.802h-0.188c-1.086,0-1.086,1.684,0,1.684h0.188
		C606.694,443.486,606.694,441.802,605.608,441.802"/>
	<path clip-path="url(#SVGID_2_)" fill="#989380" d="M605.557,441.727c-0.111,0.222-0.556,1.107-0.778,1.661
		c0.111-0.442,0-0.996,0-1.329c-0.777,1.329,1.445,1.44,1.667,2.881c0.111-0.887,0.777-2.327,1.222-3.324
		c0.223,0.333,0.223,0.554,0.333,1.108c-1-1.22-2.555-4.543-4.555-3.988c4-0.111,8.999,4.652,9.443,8.42"/>
	<path clip-path="url(#SVGID_2_)" fill="#989380" d="M604.829,441.301c-0.272,0.549-0.535,1.101-0.778,1.662
		c0.523,0.143,1.047,0.283,1.57,0.425c0.048-0.455,0.028-0.873,0-1.329c-0.047-0.745-1.215-1.265-1.57-0.426
		c-0.859,2.032,1.116,1.945,1.582,3.53c0.223,0.755,1.459,0.854,1.624,0c0.212-1.098,0.684-2.107,1.138-3.123h-1.454
		c0.132,0.289,0.214,0.591,0.248,0.907c0.513-0.216,1.025-0.433,1.539-0.649c-1.431-1.856-2.7-4.83-5.507-4.375
		c-0.964,0.156-0.693,1.641,0.225,1.654c3.935,0.059,8.025,3.989,8.631,7.802c0.171,1.07,1.793,0.614,1.624-0.448
		c-0.724-4.551-5.625-8.969-10.255-9.037c0.075,0.551,0.15,1.102,0.224,1.653c1.59-0.258,2.815,2.577,3.604,3.602
		c0.578,0.75,1.724,0.332,1.539-0.649c-0.092-0.488-0.192-0.87-0.418-1.309c-0.271-0.526-1.198-0.573-1.454,0
		c-0.511,1.142-1.069,2.29-1.308,3.524h1.624c-0.109-0.372-1.729-2.281-1.751-2.231c-0.522-0.142-1.047-0.283-1.569-0.425
		c0.028,0.456,0.048,0.874,0,1.329c-0.085,0.813,1.241,1.184,1.569,0.426c0.242-0.563,0.504-1.114,0.777-1.662
		C606.767,441.183,605.313,440.33,604.829,441.301"/>
	<path clip-path="url(#SVGID_2_)" fill="#989380" d="M602.607,441.985c0.427,0.19,0.735,0.813,1.045,1.146
		c0.466,0.526,0.93,1.052,1.355,1.625c1.238,1.625,1.587,3.681,1.664,5.832"/>
	<path clip-path="url(#SVGID_2_)" fill="#989380" d="M602.183,442.711c0.907,0.646,1.799,2.041,2.414,2.924
		c0.985,1.413,1.153,3.29,1.233,4.952c0.053,1.081,1.736,1.087,1.684,0c-0.09-1.87-0.371-3.629-1.188-5.329
		c-0.656-1.368-2.058-3.123-3.293-4.001C602.146,440.626,601.306,442.087,602.183,442.711"/>
	<path clip-path="url(#SVGID_2_)" fill="#989380" d="M833.613,442.09c2.087,0.398,3.679,1.889,4.771,3.677"/>
	<path clip-path="url(#SVGID_2_)" fill="#989380" d="M833.39,442.903c1.898,0.411,3.257,1.683,4.269,3.29
		c0.575,0.917,2.033,0.072,1.453-0.851c-1.231-1.959-2.959-3.563-5.273-4.063C832.778,441.049,832.329,442.672,833.39,442.903"/>
	<path clip-path="url(#SVGID_2_)" fill="#989380" d="M834.457,440.106c4.214-0.395,6.242,6.901,10.611,7.296
		c0.469-4.733-6.554-9.662-9.832-8.874"/>
	<path clip-path="url(#SVGID_2_)" fill="#989380" d="M834.457,440.948c2.409-0.088,4,2.369,5.421,3.988
		c1.337,1.524,2.884,2.98,4.967,3.278c0.554,0.078,1.037-0.216,1.066-0.813c0.241-4.97-5.925-10.574-10.898-9.686
		c-1.068,0.19-0.614,1.813,0.448,1.624c3.93-0.702,8.949,4.295,8.766,8.062c0.355-0.271,0.711-0.541,1.066-0.812
		c-4.637-0.66-5.788-7.511-10.836-7.326C833.374,439.303,833.37,440.988,834.457,440.948"/>
	<path clip-path="url(#SVGID_2_)" fill="#989380" d="M606.332,442.35c0.178,0.118,0.297,0.237,0.414,0.355"/>
	<path clip-path="url(#SVGID_2_)" fill="#989380" d="M605.907,443.078l0.244,0.223c0.775,0.762,1.967-0.429,1.191-1.189
		c-0.185-0.18-0.379-0.335-0.585-0.487C605.884,440.977,605.045,442.44,605.907,443.078"/>
	<path clip-path="url(#SVGID_2_)" fill="#989380" d="M653.014,498.486c0-0.857,0.345-1.348,0.861-1.348"/>
	<path clip-path="url(#SVGID_2_)" fill="#989380" d="M654.697,498.486c0.02-0.545-0.08,0.151,0.048-0.282
		c-0.117,0.397-0.472,0.587-0.871,0.618c0.915-0.072,1.686-0.71,1.686-1.684c0-0.862-0.769-1.758-1.686-1.684
		c-1.683,0.136-2.49,1.443-2.545,3.031C651.254,500.659,654.623,500.652,654.697,498.486"/>
	<path clip-path="url(#SVGID_2_)" fill="#989380" d="M837.803,441.875c-0.355,0.118-0.593,0.355-1.066,0.237
		c0.948,0.118,1.777,0.71,2.014,1.658"/>
	<path clip-path="url(#SVGID_2_)" fill="#989380" d="M837.578,441.064c-0.153,0.061-0.444,0.262-0.617,0.236
		c-0.454-0.065-0.903,0.105-1.036,0.588c-0.111,0.405,0.134,0.964,0.588,1.036c0.67,0.107,1.221,0.385,1.425,1.07
		c0.311,1.038,1.937,0.595,1.624-0.448c-0.363-1.217-1.35-2.046-2.601-2.246c-0.149,0.541-0.3,1.083-0.448,1.624
		c0.594,0.086,0.968-0.021,1.514-0.236C839.024,442.293,838.59,440.665,837.578,441.064"/>
	<rect clip-path="url(#SVGID_2_)" fill="none" stroke="#F1F2F2" stroke-miterlimit="10" width="1133.86" height="850.39"/>
</g>
</svg>
